<svg width="81" height="111" viewBox="0 0 81 111" fill="none" xmlns="http://www.w3.org/2000/svg">
<g filter="url(#filter0_i_602_1845)">
<path d="M72.8618 0.000114875C77.3337 0.000135388 80.9372 3.66591 80.8606 8.13713L79.2359 102.988C79.1612 107.352 75.602 110.851 71.2371 110.851L56.7996 110.851C51.9052 110.851 48.1582 106.495 48.8894 101.656L63.2218 6.80484C63.8129 2.89254 67.1753 8.87899e-05 71.132 0.00010694L72.8618 0.000114875Z" fill="#67A404"/>
<path d="M8.13817 110.851C3.6663 110.851 0.0627909 107.186 0.139378 102.714L1.76409 7.86329C1.83884 3.49907 5.39805 0.000305412 9.76291 0.000305603L24.2004 0.000306234C29.0948 0.000306448 32.8418 4.35607 32.1106 9.19557L17.7782 104.047C17.1871 107.959 13.8247 110.851 9.86798 110.851L8.13817 110.851Z" fill="#67A404"/>
</g>
<defs>
<filter id="filter0_i_602_1845" x="0.136719" y="0" width="82.7266" height="112.852" filterUnits="userSpaceOnUse" color-interpolation-filters="sRGB">
<feFlood flood-opacity="0" result="BackgroundImageFix"/>
<feBlend mode="normal" in="SourceGraphic" in2="BackgroundImageFix" result="shape"/>
<feColorMatrix in="SourceAlpha" type="matrix" values="0 0 0 0 0 0 0 0 0 0 0 0 0 0 0 0 0 0 127 0" result="hardAlpha"/>
<feOffset dx="2" dy="2"/>
<feGaussianBlur stdDeviation="8"/>
<feComposite in2="hardAlpha" operator="arithmetic" k2="-1" k3="1"/>
<feColorMatrix type="matrix" values="0 0 0 0 0 0 0 0 0 0 0 0 0 0 0 0 0 0 0.2 0"/>
<feBlend mode="normal" in2="shape" result="effect1_innerShadow_602_1845"/>
</filter>
</defs>
</svg>
