<svg width="102" height="111" viewBox="0 0 102 111" fill="none" xmlns="http://www.w3.org/2000/svg">
<g filter="url(#filter0_i_602_1848)">
<path d="M58.4738 0C63.3679 0.000270761 67.1149 4.35612 66.3839 9.19531L64.2638 23.2217L37.2804 50.8164C34.6498 53.5068 34.25 57.667 36.3195 60.8096L54.4289 88.3086L52.0509 104.047C51.4597 107.959 48.0974 110.852 44.1408 110.852H38.5832C35.8925 110.851 33.3824 109.498 31.9025 107.251L1.31851 60.8096C-0.750828 57.6669 -0.350333 53.5067 2.28043 50.8164L49.6193 2.40723C51.1244 0.868181 53.1864 -9.40962e-08 55.339 0H58.4738ZM93.4738 0C98.3682 2.13942e-07 102.115 4.35582 101.384 9.19531L94.3986 55.4258L87.0519 104.047C86.4606 107.959 83.0982 110.851 79.1418 110.852H73.5841C70.8933 110.852 68.3824 109.498 66.9025 107.251L54.4289 88.3086L59.3976 55.4258L64.2638 23.2217L84.6193 2.40723C86.1244 0.868089 88.1863 2.41214e-05 90.339 0H93.4738Z" fill="#67A404"/>
</g>
<defs>
<filter id="filter0_i_602_1848" x="0" y="0" width="103.477" height="112.852" filterUnits="userSpaceOnUse" color-interpolation-filters="sRGB">
<feFlood flood-opacity="0" result="BackgroundImageFix"/>
<feBlend mode="normal" in="SourceGraphic" in2="BackgroundImageFix" result="shape"/>
<feColorMatrix in="SourceAlpha" type="matrix" values="0 0 0 0 0 0 0 0 0 0 0 0 0 0 0 0 0 0 127 0" result="hardAlpha"/>
<feOffset dx="2" dy="2"/>
<feGaussianBlur stdDeviation="8"/>
<feComposite in2="hardAlpha" operator="arithmetic" k2="-1" k3="1"/>
<feColorMatrix type="matrix" values="0 0 0 0 0 0 0 0 0 0 0 0 0 0 0 0 0 0 0.2 0"/>
<feBlend mode="normal" in2="shape" result="effect1_innerShadow_602_1848"/>
</filter>
</defs>
</svg>
